Simulation
nRows=32
nColumns=15
endheader
time  TH_x TH_y TH_z SC_y  SC_z  SC_x  AC_y  AC_z  AC_x  GH_y  GH_z  GH_yy  EL_x  PS_y
8.6175  0.000000  0.000000  0.000000  -35.21910058910554  2.5040997330867487  -7.3754853952813795  41.46603001824652  13.301985296155962  4.277007040561209  112.48812053353706  4.879718117500648  -97.35303651867662  20.58297005334174  120.000000
8.67495  0.000000  0.000000  0.000000  -34.85277916820839  2.3230253577534925  -7.675133795692018  40.95369593308899  13.215549131674655  3.862498611189352  102.94605319050228  5.393687870701781  -87.80602271727388  20.512751468106913  120.000000
8.7324  0.000000  0.000000  0.000000  -34.475098737454246  2.075230423752795  -8.050392143943283  40.497795015108075  13.20670637170361  3.476054151156216  94.23527515616921  6.472055126001041  -78.93259662131895  20.612878386493755  120.000000
8.78985  0.000000  0.000000  0.000000  -34.124724079411045  1.7940639141128867  -8.457852829267422  40.13070659151683  13.276059712281432  3.145198432519239  87.97238881064729  8.194067260536757  -72.40937276677005  20.868035858414682  120.000000
8.8473  0.000000  0.000000  0.000000  -33.83413472011057  1.5433891321093338  -8.850966936711462  39.87036445319044  13.428504095298859  2.9046673872424003  84.31403093981338  10.563232929724295  -68.49582170776577  21.221734636638576  120.000000
8.90475  0.000000  0.000000  0.000000  -33.619896357338575  1.3976381964532651  -9.180033245604749  39.708365709398876  13.66965331101337  2.8000380815622012  82.64989768264617  13.510147553747657  -66.69677560268498  21.599943444278388  120.000000
8.9622  0.000000  0.000000  0.000000  -33.48443793129626  1.4221730407970907  -9.393935435919117  39.62033355343957  14.004499499238229  2.8794505222563624  82.28304072318308  16.905249043065226  -66.41655089740524  21.93537679068661  120.000000
9.01965  0.000000  0.000000  0.000000  -33.42388337725286  1.681941763887711  -9.43976915960392  39.58717375313349  14.4275894334367  3.1900244209694595  82.68821758079896  20.597652655367714  -67.19744821542047  22.18853758466181  120.000000
9.0771  0.000000  0.000000  0.000000  -33.44448314448328  2.2296525260296445  -9.261587005209574  39.60575968624054  14.917485308550884  3.7660724266941523  83.49095486815604  24.45226268394831  -68.69690343381629  22.34852822707174  120.000000
9.13455  0.000000  0.000000  0.000000  -33.57113940001187  3.0896719794208582  -8.801845617511379  39.6906881651271  15.435885256406234  4.618002831485453  84.42002664715903  28.363283411614315  -70.64684661415433  22.41912749402912  120.000000
9.192  0.000000  0.000000  0.000000  -33.83630696923605  4.260317128582752  -8.005394292941805  39.8752640116148  15.930876457511644  5.730653014386424  85.28416652365789  32.25386344391306  -72.83351084002584  22.405635493861755  120.000000
9.24945  0.000000  0.000000  0.000000  -34.270581638560756  5.716538746317258  -6.8206321365294365  40.2093244197472  16.352756186687564  7.059515218331521  85.9425592711402  36.067500803968585  -75.07557634090196  22.306165483911016  120.000000
9.3069  0.000000  0.000000  0.000000  -34.89871049146261  7.4170379431779185  -5.199600473700358  40.74615924023985  16.664722024946204  8.536954983064794  86.29832064032428  39.75658575804418  -77.22261456747654  22.110442653711715  120.000000
9.36435  0.000000  0.000000  0.000000  -35.75000164606015  9.298154562816842  -3.0977351979371295  41.50696498598201  16.838587943344773  10.097199446126332  86.30501124796729  43.27049765953228  -79.16184410946425  21.807756573139738  120.000000
9.421800000000001  0.000000  0.000000  0.000000  -36.85725238448309  11.266149148551348  -0.48502212898514996  42.46959998686814  16.851781839180727  11.68940703613645  85.96800855961119  46.55563494191919  -80.82449953912335  21.398433119176325  120.000000
9.47925  0.000000  0.000000  0.000000  -38.24181505669417  13.204686080817332  2.630445768597282  43.591586087836255  16.695137588576124  13.268575491358517  85.33008585927342  49.56937176401224  -82.18306792435841  20.90413533589362  120.000000
9.5367  0.000000  0.000000  0.000000  -39.89794690001909  14.993246702039135  6.183132658328603  44.82228812585794  16.382247163070407  14.785774867726587  84.45078932644252  52.2826305108484  -83.23876981732118  20.3645869554393  120.000000
9.59415  0.000000  0.000000  0.000000  -41.786410374738594  16.521697012418574  10.04353777592231  46.10015325538795  15.946001866313136  16.18805179400755  83.39132871160861  54.67626190226907  -84.00522568618948  19.825940724652163  120.000000
9.6516  0.000000  0.000000  0.000000  -43.81955987449931  17.70879970385751  14.024018245790321  47.354083877104365  15.428511914277227  17.424345989587884  82.21294039872949  56.737490796169716  -84.49770751743335  19.33031014723492  120.000000
9.70905  0.000000  0.000000  0.000000  -45.85930363998077  18.524915543240247  17.899251791568886  48.51583667295462  14.872097158576036  18.4494981346995  80.98604350034095  58.4595989746799  -84.73235910412107  18.90786785652843  120.000000
9.7665  0.000000  0.000000  0.000000  -47.73767398111069  18.99566198765892  21.435964628801806  49.52958729350896  14.311090243868811  19.226708945789607  79.79241654601105  59.84011819316143  -84.72999656651506  18.57756855102986  120.000000
9.82395  0.000000  0.000000  0.000000  -49.29085648578607  19.19205293413075  24.423446337544323  50.35528083248242  13.769912907893744  19.7271996221841  78.71782263383729  60.8786614551658  -84.5212389696137  18.34958373942129  120.000000
9.8814  0.000000  0.000000  0.000000  -50.387089825820965  19.205933113739963  26.693163105032056  50.96728975159968  13.266895803050518  19.929690000895313  77.83778094755417  61.57648234457239  -84.14774415003478  18.22648182871573  120.000000
9.93885  0.000000  0.000000  0.000000  -50.93897675002013  19.121975818674812  28.125017468463533  51.351500540245674  12.819008336950668  19.82251999798254  77.20521514804007  61.936641117469684  -83.65871187457907  18.19907322251368  120.000000
9.9963  0.000000  0.000000  0.000000  -50.90401130440911  18.99481595635391  28.643938457025094  51.50463055916967  12.443891680240188  19.407422488175918  76.84352577219906  61.96550622702908  -83.10205635162468  18.246398712721454  120.000000
10.05375  0.000000  0.000000  0.000000  -50.28207633934844  18.836693950821996  28.215432955074906  51.43320296352657  12.158625060490051  18.704729954347204  76.74653582983252  61.67229270932412  -82.51089960679711  18.33994961714777  120.000000
10.1112  0.000000  0.000000  0.000000  -49.11762804455765  18.61443993961873  26.84840714443227  51.14998185235189  11.979604695877414  17.754854260328244  76.88050456432606  61.06672671325517  -81.88695913322383  18.44970529545739  120.000000
10.16865  0.000000  0.000000  0.000000  -47.50395121154802  18.25724657755903  24.605911052989565  50.67023018215985  11.925355934121862  16.6174118381935  77.18804492745777  60.15776193830139  -81.18642628200196  18.54824944627394  120.000000
10.2261  0.000000  0.000000  0.000000  -45.58108203886405  17.675659301506457  21.61119526523944  50.010773967044926  12.016695275113467  15.36951454913721  77.59290983265142  58.95443487905359  -80.32091363375451  18.614073254717994  120.000000
10.28355  0.000000  0.000000  0.000000  -43.5217771374671  16.795984987821093  18.03867841277579  49.194466744069  12.275522558530193  14.097759828832432  78.00478464596533  57.4677369585649  -79.17650341628494  18.634187883222047  120.000000
10.341000000000001  0.000000  0.000000  0.000000  -41.50153007864707  15.58957048096822  14.085750254269042  48.25255084037522  12.713826116881497  12.890125539349643  78.32886471695723  55.71109689096185  -77.64581483293428  18.610847554522614  120.000000
10.39845  0.000000  0.000000  0.000000  -39.663832411259456  14.08536488104604  9.937297536644575  47.224787260346126  13.323193075152382  11.826362231981506  78.47784746596385  53.70044549526512  -75.65607868430307  18.5730052032923  120.000000
